<svg xmlns="http://www.w3.org/2000/svg" viewBox="0 0 1500 500">
  <defs/>
  <g>
    <path fill="#2B2B2B" fill-rule="nonzero" d="M222.5 374l25.6-56h98.7l24.1 56H409L299 129 185 374h37.5zM334 285h-71l36.3-79 34.7 79zm119.4 93c14.2 0 26.2-4.5 36.2-13.5a46.1 46.1 0 0015.4-35.3c0-11-3-19.7-9.2-26.2-6.1-6.5-18-13.5-35.7-21.2-12.8-5.5-19.3-11-19.3-16.6 0-3.2 1.1-5.9 3.3-7.9 2.2-2 4.8-3 7.8-3 6.5 0 11.9 4.4 16.2 13.4l27.6-14.8c-9-19.3-22.8-28.9-41.2-28.9a45 45 0 00-32 12.4 41.8 41.8 0 00-13 31.5c0 9.5 2.6 17.4 7.6 23.4 4 4.8 10.8 9.6 20.5 14.4a917 917 0 0020.3 9.9c8.7 5.2 13 10.8 13 16.8 0 10.3-5.6 15.5-16.9 15.5-5.6 0-10.5-1.9-14.5-5.7-2-1.9-5-6.3-9-13.3L402 342.2c10 23.9 27.2 35.8 51.4 35.8zm94.5-4v-56.2l5.5-5.4 48.5 61.6H646l-68.5-84.6 63.8-61.3h-45.5l-47.9 47.2V121H514v253h34zm212.3 5c22 0 42.9-5.6 62.8-17v-42c-5.7 4.8-11 8.9-16.2 12.3a90 90 0 01-14.9 8c-8.5 4-19 6-31.2 6a80.8 80.8 0 01-60-25A84.4 84.4 0 01676 260c0-24.6 8.2-45.3 24.5-62.3a79.4 79.4 0 0160-25.6c21.5 0 42.3 8.4 62.4 25.3v-41.4a117.6 117.6 0 00-60-16.9c-38 0-69 14.1-92.9 42.4a119 119 0 00-29.1 78.8c0
32.9 11.6 61 34.8 84.2 23.3 23 51.5 34.6 84.4 34.6zm114.8-5V121h-34v253h34zm84.5 4c16 0 30.9-6.5 44.7-19.5v15.3h33.8V228h-33.8v17a63.1 63.1 0 00-94.6.9 78.8 78.8 0 00-19.6 54.6c0 22.2 6.5 40.8 19.6 55.6a64.4 64.4 0 0050 21.9zm4.8-29a36.7 36.7 0 01-29-13.4 51.2 51.2 0 01-11.3-34.3 49 49 0 0111.5-33 37.1 37.1 0 0129-13.3 38 38 0 0130 13c7.7 9 11.5 20.3 11.5 34 0 13.8-3.8 25.1-11.5 34a38.5 38.5 0 01-30.2 13zm139.1 29c14.2 0 26.2-4.5 36.2-13.5a46.1 46.1 0 0015.4-35.3c0-11-3-19.7-9.2-26.2-6.1-6.5-18-13.5-35.7-21.2-12.8-5.5-19.3-11-19.3-16.6 0-3.2 1.1-5.9 3.3-7.9 2.2-2 4.8-3 7.8-3 6.5 0 11.9 4.4 16.2 13.4l27.6-14.8c-9-19.3-22.8-28.9-41.2-28.9a45 45 0 00-32 12.4 41.8 41.8 0 00-13 31.5c0 9.5 2.6 17.4 7.6 23.4 4 4.8 10.8 9.6 20.5 14.4a917 917 0 0020.3 9.9c8.7 5.2 13 10.8 13 16.8 0 10.3-5.6 15.5-16.9 15.5-5.6 0-10.5-1.9-14.5-5.7-2-1.9-5-6.3-9-13.3l-28.5 13.3c10 23.9 27.2 35.8 51.4 35.8zm103 0c14.2 0 26.2-4.5 36.2-13.5a46.1 46.1 0
0015.4-35.3c0-11-3-19.7-9.2-26.2-6.1-6.5-18-13.5-35.7-21.2-12.8-5.5-19.3-11-19.3-16.6 0-3.2 1.1-5.9 3.3-7.9 2.2-2 4.8-3 7.8-3 6.5 0 11.9 4.4 16.2 13.4l27.6-14.8c-9-19.3-22.8-28.9-41.2-28.9a45 45 0 00-32 12.4 41.8 41.8 0 00-13 31.5c0 9.5 2.6 17.4 7.6 23.4 4 4.8 10.8 9.6 20.5 14.4a917 917 0 0020.3 9.9c8.7 5.2 13 10.8 13 16.8 0 10.3-5.6 15.5-16.9 15.5-5.6 0-10.5-1.9-14.5-5.7-2-1.9-5-6.3-9-13.3l-28.5 13.3c10 23.9 27.2 35.8 51.4 35.8zm88.1 0c5.7 0 10.5-2 14.5-5.9 4-4 6-8.9 6-14.6 0-5.6-2-10.4-6-14.5-4-4-8.9-6-14.5-6s-10.4 2-14.5 6c-4 4-6 8.8-6 14.4a20 20 0 0020.5 20.6z"/>
  </g>
</svg>
