<svg xmlns="http://www.w3.org/2000/svg" viewBox="0 0 300 300">
  <circle cx="150" cy="150" r="150" fill="#fff"/>
  <path d="M149.5 43.6a40.6 40.6 0 0140.7 36.1c0 .3 1 1.2 2 2 2.7 2 7.8 7.1 10 10.2 4 5.6 6.8 12.4 8.2 19.2.6 2.8.6 4.2.6 9.5a52 52 0 01-.4 8.4l-.5 2.3 1.8 2.1c5 6 8.6 13.6 10.3 21.8.5 2.8.6 4.1.6 9.4 0 5.2-.1 6.7-.7 9.1a51.4 51.4 0 01-26.8 34.8 40.2 40.2 0 01-17.3 4.8c-2.2.1-4.4.4-4.9.5-3.8 1.2-6.4 4.3-7.7 9.4-.4 1.7-.5 3.5-.5 14.2v12.2l-.7 1.5c-.9 2-3.3 4.3-5.2 5-1.7.5-4.8.5-6.5-.1a11 11 0 01-5.1-4.9c-.7-1.5-.7-1.6-.8-13.7 0-9.7 0-12.9.4-15.2 2-13.7 10-23.2 21.8-26.3a46 46 0 016.5-.8c2.4-.2 5-.5 6-.8a33.2 33.2 0 0022.4-22.8 29.6 29.6 0 00-8.6-29c-3.7-3.8-4.5-5.1-4.5-8.1 0-1.4.3-3 .9-5a30.5 30.5 0 00-13.3-34.8c-5-3.4-5.7-4.6-6.1-10A23.4 23.4 0 00159.3 64a20 20 0 00-9.8-2.2 20 20 0 00-9.9 2.2A23.2 23.2 0 00127 84.7c-.4 5.8-1.2 7.1-6.4 10.3a31 31 0 00-13.6 18.1c-1.6 6-1.5 11.3.6 17.8.7 2.4.9 3.2.8 5-.2 2.6-.9 3.9-3.8 7a31.6 31.6 0 00-8.3 15 30.6 30.6 0 0027 36.8c3.5.5 5.4 1.3 7.2 3 1.9 1.9 2.5 3.5 2.5 6.5 0 2-.2 2.7-.7 3.8-1 1.8-2.6 3.4-4.3 4.3-1.4.8-1.8.8-4.7.8a48.8 48.8 0
01-35.8-78.7l1.3-1.7-.3-1.7a56 56 0 010-19.6 51.4 51.4 0 018.2-19c2.2-3 6.8-7.9 9.9-10.2 1.8-1.3 2.2-1.8 2.3-2.6a40.6 40.6 0 0140.7-36z"/>
</svg>
